<svg width="165" height="62" viewBox="0 0 165 62" fill="none" xmlns="http://www.w3.org/2000/svg">
<path d="M8.94542 11.441C10.8684 11.441 12.5488 11.8221 13.9867 12.5844C15.4246 13.3466 16.5333 14.4207 17.3129 15.8066C18.1098 17.1752 18.5082 18.7604 18.5082 20.562C18.5082 22.3464 18.1098 23.9316 17.3129 25.3175C16.5333 26.7034 15.4159 27.7775 13.9607 28.5397C12.5228 29.302 10.8511 29.6831 8.94542 29.6831H2.11113V11.441H8.94542ZM8.65958 25.8372C10.34 25.8372 11.648 25.3781 12.5835 24.4599C13.5189 23.5418 13.9867 22.2425 13.9867 20.562C13.9867 18.8816 13.5189 17.5737 12.5835 16.6382C11.648 15.7027 10.34 15.2349 8.65958 15.2349H6.55472V25.8372H8.65958ZM25.4351 11.441V29.6831H20.9915V11.441H25.4351ZM45.78 11.441L39.3096 29.6831H33.7486L27.2781 11.441H32.0075L36.5291 25.2135L41.0766 11.441H45.78ZM52.0808 15.0011V18.6911H58.0316V22.1212H52.0808V26.123H58.8112V29.6831H47.6372V11.441H58.8112V15.0011H52.0808ZM70.999 29.6831L67.205 22.7968H66.1396V29.6831H61.696V11.441H69.154C70.5919 11.441 71.8132 11.6922 72.818 12.1946C73.8401 12.697 74.6023 13.3899 75.1047 14.2735C75.6071 15.1397 75.8583 16.1098 75.8583 17.1839C75.8583 18.3966 75.5119 19.4793 74.8189 20.4321C74.1433 21.3849 73.1385 22.0606 71.8045 22.459L76.0142 29.6831H70.999ZM66.1396 19.6525H68.8941C69.7083 19.6525 70.3147 19.4533 70.7131 19.0549C71.1289 18.6564 71.3368 18.0934 71.3368 17.3658C71.3368 16.6728 71.1289 16.1271 70.7131 15.7287C70.3147 15.3302 69.7083 15.131 68.8941 15.131H66.1396V19.6525ZM85.2482 29.865C83.9142 29.865 82.7189 29.6485 81.6621 29.2154C80.6054 28.7823 79.7565 28.1413 79.1155 27.2924C78.4918 26.4435 78.1627 25.4214 78.128 24.2261H82.8575C82.9268 24.9017 83.1607 25.4214 83.5591 25.7852C83.9576 26.1317 84.4773 26.3049 85.1183 26.3049C85.7766 26.3049 86.2963 26.1577 86.6774 25.8632C87.0585 25.5513 87.2491 25.1269 87.2491 24.5899C87.2491 24.1394 87.0932 23.767 86.7814 23.4725C86.4868 23.178 86.1144 22.9354 85.664 22.7449C85.2309 22.5543 84.6072 22.3378 83.793 22.0952C82.6149 21.7314 81.6535 21.3676 80.9085 21.0038C80.1636 20.64 79.5226 20.103 78.9856 19.3927C78.4485 18.6824 78.18 17.7556 78.18 16.6122C78.18 14.9144 78.795 13.5892 80.025 12.6363C81.255 11.6662 82.8575 11.1811 84.8324 11.1811C86.842 11.1811 88.4618 11.6662 89.6918 12.6363C90.9218 13.5892 91.5801 14.9231 91.6667 16.6382H86.8593C86.8247 16.0492 86.6081 15.5901 86.2097 15.2609C85.8112 14.9144 85.3002 14.7412 84.6765 14.7412C84.1395 14.7412 83.7064 14.8885 83.3772 15.183C83.048 15.4601 82.8835 15.8673 82.8835 16.4043C82.8835 16.9933 83.1606 17.4524 83.715 17.7816C84.2694 18.1107 85.1356 18.4659 86.3136 18.847C87.4916 19.2454 88.4445 19.6266 89.1721 19.9904C89.917 20.3542 90.558 20.8825 91.095 21.5755C91.6321 22.2685 91.9006 23.1606 91.9006 24.252C91.9006 25.2915 91.6321 26.2356 91.095 27.0845C90.5753 27.9334 89.813 28.609 88.8083 29.1114C87.8035 29.6138 86.6168 29.865 85.2482 29.865ZM99.0788 11.441V29.6831H94.6352V11.441H99.0788Z" fill="url(#paint0_linear_11_19058)"/>
<path d="M18.5082 36.4856V40.8368H12.6008V58.7815H7.16972V40.8368H1.26225V36.4856H18.5082ZM32.6042 58.7815L27.9672 50.3649H26.665V58.7815H21.2339V36.4856H30.3492C32.1066 36.4856 33.5994 36.7926 34.8275 37.4066C36.0767 38.0207 37.0084 38.8676 37.6224 39.9475C38.2364 41.0062 38.5434 42.1919 38.5434 43.5047C38.5434 44.9868 38.12 46.3102 37.273 47.4747C36.4473 48.6393 35.2192 49.4651 33.5888 49.9521L38.734 58.7815H32.6042ZM26.665 46.5219H30.0316C31.0268 46.5219 31.7679 46.2784 32.2549 45.7914C32.763 45.3044 33.0171 44.6163 33.0171 43.727C33.0171 42.88 32.763 42.2131 32.2549 41.7261C31.7679 41.2391 31.0268 40.9956 30.0316 40.9956H26.665V46.5219ZM55.8321 54.8432H47.5108L46.1769 58.7815H40.4918L48.5589 36.4856H54.8475L62.9147 58.7815H57.1661L55.8321 54.8432ZM54.4346 50.6508L51.6715 42.4883L48.9401 50.6508H54.4346ZM90.6196 36.4856V58.7815H85.1886V45.4103L80.2021 58.7815H75.8192L70.801 45.3785V58.7815H65.37V36.4856H71.7856L78.0424 51.9212L84.2357 36.4856H90.6196ZM111.517 43.6635C111.517 44.9551 111.221 46.1408 110.628 47.2206C110.035 48.2793 109.124 49.1369 107.896 49.7933C106.668 50.4496 105.144 50.7778 103.323 50.7778H99.9562V58.7815H94.5252V36.4856H103.323C105.101 36.4856 106.605 36.7926 107.833 37.4066C109.061 38.0207 109.982 38.8676 110.596 39.9475C111.21 41.0273 111.517 42.266 111.517 43.6635ZM102.91 46.4584C103.947 46.4584 104.72 46.2149 105.228 45.7279C105.737 45.2409 105.991 44.5528 105.991 43.6635C105.991 42.7742 105.737 42.086 105.228 41.599C104.72 41.112 103.947 40.8685 102.91 40.8685H99.9562V46.4584H102.91ZM124.889 59.0038C122.793 59.0038 120.866 58.5168 119.109 57.5428C117.372 56.5688 115.985 55.2137 114.948 53.4775C113.932 51.7201 113.423 49.7509 113.423 47.57C113.423 45.3891 113.932 43.4306 114.948 41.6943C115.985 39.9581 117.372 38.6029 119.109 37.629C120.866 36.655 122.793 36.168 124.889 36.168C126.985 36.168 128.901 36.655 130.638 37.629C132.395 38.6029 133.771 39.9581 134.767 41.6943C135.783 43.4306 136.291 45.3891 136.291 47.57C136.291 49.7509 135.783 51.7201 134.767 53.4775C133.75 55.2137 132.374 56.5688 130.638 57.5428C128.901 58.5168 126.985 59.0038 124.889 59.0038ZM124.889 54.0492C126.668 54.0492 128.086 53.4563 129.145 52.2706C130.225 51.0849 130.765 49.518 130.765 47.57C130.765 45.6009 130.225 44.034 129.145 42.8695C128.086 41.6837 126.668 41.0909 124.889 41.0909C123.089 41.0909 121.649 41.6731 120.57 42.8377C119.511 44.0022 118.982 45.5797 118.982 47.57C118.982 49.5392 119.511 51.1166 120.57 52.3023C121.649 53.4669 123.089 54.0492 124.889 54.0492Z" fill="white"/>
<rect x="96.3591" y="11.655" width="38.1127" height="4.04225" fill="#8DD9F0"/>
<rect x="96.3591" y="14.5422" width="38.1127" height="4.81884" fill="#F8B0D6"/>
<rect x="96.3591" y="18.2063" width="38.1127" height="4.81884" fill="white"/>
<rect x="96.3591" y="21.8701" width="38.1127" height="5.25692" fill="#F8B0D6"/>
<rect x="96.3591" y="25.9719" width="38.1127" height="3.46479" fill="#8DD9F0"/>
<defs>
<linearGradient id="paint0_linear_11_19058" x1="80.1901" y1="19.162" x2="3.96479" y2="19.162" gradientUnits="userSpaceOnUse">
<stop offset="0.117708" stop-color="#F8B0D6"/>
<stop offset="0.560417" stop-color="#8DD9F0"/>
</linearGradient>
</defs>
</svg>
