<svg width="52" height="52" viewBox="0 0 52 52" fill="none" xmlns="http://www.w3.org/2000/svg">
<rect y="0.125" width="51.75" height="51.75" rx="8.48361" fill="#FFADBB"/>
<path d="M16.8188 32.4688C16.4757 32.4688 16.1466 32.3325 15.904 32.0899C15.6613 31.8473 15.525 31.5182 15.525 31.1751C15.525 30.832 15.6613 30.5029 15.904 30.2603C16.1466 30.0177 16.4757 29.8813 16.8188 29.8813H34.9313C35.2744 29.8813 35.6035 30.0177 35.8461 30.2603C36.0887 30.5029 36.225 30.832 36.225 31.1751C36.225 31.5182 36.0887 31.8473 35.8461 32.0899C35.6035 32.3325 35.2744 32.4688 34.9313 32.4688H16.8188ZM16.8188 38.9376C16.4757 38.9376 16.1466 38.8013 15.904 38.5587C15.6613 38.316 15.525 37.987 15.525 37.6438C15.525 37.3007 15.6613 36.9717 15.904 36.729C16.1466 36.4864 16.4757 36.3501 16.8188 36.3501H34.9313C35.2744 36.3501 35.6035 36.4864 35.8461 36.729C36.0887 36.9717 36.225 37.3007 36.225 37.6438C36.225 37.987 36.0887 38.316 35.8461 38.5587C35.6035 38.8013 35.2744 38.9376 34.9313 38.9376H16.8188Z" fill="white"/>
<path fill-rule="evenodd" clip-rule="evenodd" d="M28.9411 2.7124H11.6437C10.6143 2.7124 9.62712 3.12132 8.89924 3.84919C8.17137 4.57707 7.76245 5.56428 7.76245 6.59365V45.4062C7.76245 46.4355 8.17137 47.4227 8.89924 48.1506C9.62712 48.8785 10.6143 49.2874 11.6437 49.2874H40.1062C41.1356 49.2874 42.1228 48.8785 42.8507 48.1506C43.5785 47.4227 43.9874 46.4355 43.9874 45.4062V18.7601C43.9872 17.7884 43.6225 16.8522 42.9654 16.1364L31.8029 3.96993C31.4391 3.57338 30.9969 3.25681 30.5042 3.04033C30.0116 2.82384 29.4793 2.71217 28.9411 2.7124ZM10.35 6.59365C10.35 6.25053 10.4863 5.92146 10.7289 5.67883C10.9715 5.43621 11.3006 5.2999 11.6437 5.2999H28.9411C29.1207 5.29971 29.2983 5.33687 29.4626 5.40904C29.627 5.4812 29.7746 5.58679 29.8959 5.71908L41.0584 17.8855C41.2777 18.124 41.3996 18.4361 41.3999 18.7601V45.4062C41.3999 45.7493 41.2636 46.0784 41.021 46.321C40.7784 46.5636 40.4493 46.6999 40.1062 46.6999H11.6437C11.3006 46.6999 10.9715 46.5636 10.7289 46.321C10.4863 46.0784 10.35 45.7493 10.35 45.4062V6.59365Z" fill="white"/>
<path d="M29.7562 5.55884V17.7201H41.9175" stroke="white" stroke-width="2.5875" stroke-linecap="round" stroke-linejoin="round"/>
<path d="M21.0466 15.9942C21.4161 16.0055 21.7841 15.9425 22.1288 15.8089C22.4735 15.6753 22.7878 15.4739 23.0532 15.2165C23.3186 14.9591 23.5296 14.6511 23.6736 14.3106C23.8177 13.9702 23.892 13.6043 23.892 13.2346C23.892 12.8649 23.8177 12.499 23.6736 12.1586C23.5296 11.8181 23.3186 11.5101 23.0532 11.2527C22.7878 10.9954 22.4735 10.7939 22.1288 10.6603C21.7841 10.5267 21.4161 10.4637 21.0466 10.475C20.3293 10.497 19.6488 10.7974 19.1492 11.3125C18.6496 11.8276 18.3702 12.517 18.3702 13.2346C18.3702 13.9522 18.6496 14.6416 19.1492 15.1567C19.6488 15.6719 20.3293 15.9722 21.0466 15.9942Z" fill="white"/>
<path fill-rule="evenodd" clip-rule="evenodd" d="M26.5633 21.974C26.5633 19.0397 24.0922 16.9154 21.0442 16.9154C17.9961 16.9154 15.525 19.0372 15.525 21.974V23.3557C15.5257 23.5995 15.6231 23.8332 15.7957 24.0054C15.9684 24.1776 16.2023 24.2743 16.4462 24.2743H25.6447C25.8881 24.2736 26.1214 24.1766 26.2935 24.0045C26.4656 23.8323 26.5626 23.5991 26.5633 23.3557V21.974Z" fill="white"/>
</svg>
