<svg width="21" height="17" viewBox="0 0 21 17" fill="none" xmlns="http://www.w3.org/2000/svg">
<path d="M1.41466 0.683496C1.26616 0.764496 1.07716 1.0345 0.969156 1.291C0.807156 1.6825 0.807156 1.8175 0.969156 2.209C1.07716 2.4655 1.27966 2.7355 1.42816 2.8165C1.61716 2.9245 4.47916 2.965 10.5542 2.965H19.3967L19.7747 2.641C20.3012 2.182 20.3012 1.318 19.7747 0.858996L19.3967 0.534996H10.5272C4.46566 0.548496 1.57666 0.588996 1.41466 0.683496Z" fill="#FDFCFC"/>
<path d="M1.41466 7.4335C1.26616 7.5145 1.07716 7.7845 0.969156 8.041C0.807156 8.4325 0.807156 8.5675 0.969156 8.959C1.07716 9.2155 1.27966 9.4855 1.42816 9.5665C1.61716 9.661 3.33166 9.715 6.50416 9.715H11.2967L11.6747 9.391C12.2012 8.932 12.2012 8.068 11.6747 7.609L11.2967 7.285H6.47716C3.30466 7.2985 1.57666 7.339 1.41466 7.4335Z" fill="#FDFCFC"/>
<path d="M1.41466 14.4535C1.26616 14.5345 1.07716 14.8045 0.969156 15.061C0.807156 15.4525 0.807156 15.5875 0.969156 15.979C1.07716 16.2355 1.27966 16.5055 1.42816 16.5865C1.61716 16.6945 4.08766 16.735 9.20416 16.735H16.6967L17.0747 16.411C17.6012 15.952 17.6012 15.088 17.0747 14.629L16.6967 14.305H9.17716C4.07416 14.3185 1.57666 14.359 1.41466 14.4535Z" fill="#FDFCFC"/>
</svg>