<svg width="43" height="57" viewBox="0 0 43 57" fill="none" xmlns="http://www.w3.org/2000/svg">
<path d="M41.1722 10.908L31.8336 1.56942C30.8319 0.567663 29.4739 0 28.0603 0H5.34271C2.39309 0.0111306 0 2.40422 0 5.35384V51.6573C0 54.6069 2.39309 57 5.34271 57H37.3989C40.3486 57 42.7416 54.6069 42.7416 51.6573V14.6924C42.7416 13.2789 42.174 11.9098 41.1722 10.908ZM36.9648 14.2583H28.4944V5.78793L36.9648 14.2583ZM5.34271 51.6573V5.35384H23.1517V16.9297C23.1517 18.4101 24.3427 19.6011 25.8231 19.6011H37.3989V51.6573H5.34271ZM33.1916 35.6626C31.8336 34.3269 27.9602 34.6942 26.0234 34.9391C24.109 33.7704 22.8289 32.1564 21.9274 29.7856C22.3615 27.9936 23.0515 25.2666 22.5284 23.5524C22.0609 20.6362 18.321 20.9256 17.7868 22.8957C17.297 24.6878 17.7422 27.181 18.5659 30.3644C17.4528 33.0246 15.7944 36.5975 14.6257 38.6456C12.3995 39.792 9.39426 41.5618 8.94903 43.7879C8.58172 45.5466 11.843 49.932 17.4194 40.3152C19.9127 39.4915 22.6286 38.4786 25.0328 38.0779C27.1365 39.2132 29.5964 39.9701 31.2437 39.9701C34.082 39.9701 34.3603 36.8313 33.1916 35.6626ZM11.1418 44.3222C11.7094 42.7973 13.8688 41.0387 14.5255 40.4265C12.4107 43.7991 11.1418 44.4001 11.1418 44.3222ZM20.2244 23.1072C21.048 23.1072 20.9701 26.6801 20.4247 27.6485C19.935 26.1013 19.9461 23.1072 20.2244 23.1072ZM17.5085 38.3117C18.5882 36.4306 19.512 34.1933 20.2578 32.2232C21.1816 33.9039 22.3615 35.2507 23.6081 36.1746C21.2929 36.6532 19.2783 37.6327 17.5085 38.3117ZM32.1564 37.7551C32.1564 37.7551 31.5999 38.423 28.0047 36.8869C31.9115 36.5975 32.5571 37.488 32.1564 37.7551Z" fill="black"/>
</svg>
