<svg width="340" height="544" viewBox="0 0 340 544" fill="none" xmlns="http://www.w3.org/2000/svg">
<g filter="url(#filter0_d_250_1600)">
<path d="M16.5 31C14.8585 31 13.233 31.3233 11.7165 31.9515C10.1999 32.5797 8.8219 33.5004 7.66116 34.6612C6.50043 35.8219 5.57969 37.1999 4.95151 38.7165C4.32332 40.233 4 41.8585 4 43.5H9.97C9.97 42.6425 10.1389 41.7933 10.4671 41.0011C10.7952 40.2088 11.2762 39.489 11.8826 38.8826C12.489 38.2762 13.2088 37.7952 14.0011 37.4671C14.7933 37.1389 15.6425 36.97 16.5 36.97V31Z" fill="#8DD9F0"/>
<rect x="4" y="43" width="6" height="492" fill="#8DD9F0"/>
<rect x="16" y="37" width="6" height="320" transform="rotate(-90 16 37)" fill="#8DD9F0"/>
</g>
<g filter="url(#filter1_d_250_1600)">
<path d="M50 0C48.4241 -1.8792e-08 46.8637 0.310389 45.4078 0.913446C43.9519 1.5165 42.629 2.40042 41.5147 3.51472C40.4004 4.62902 39.5165 5.95189 38.9134 7.4078C38.3104 8.86371 38 10.4241 38 12H43.7312C43.7312 11.1768 43.8933 10.3616 44.2084 9.60103C44.5234 8.84047 44.9852 8.1494 45.5673 7.56729C46.1494 6.98518 46.8405 6.52342 47.601 6.20838C48.3616 5.89335 49.1768 5.7312 50 5.7312V0Z" fill="#FFCDD6"/>
<rect x="50" width="285" height="6" fill="#FFCDD6"/>
</g>
<g filter="url(#filter2_d_250_1600)">
<rect x="38" y="10" width="6" height="526" fill="#FFCDD6"/>
</g>
<g filter="url(#filter3_d_250_1600)">
<path d="M32 17C30.4241 17 28.8637 17.3104 27.4078 17.9134C25.9519 18.5165 24.629 19.4004 23.5147 20.5147C22.4004 21.629 21.5165 22.9519 20.9134 24.4078C20.3104 25.8637 20 27.4241 20 29H25.7312C25.7312 28.1768 25.8933 27.3616 26.2084 26.601C26.5234 25.8405 26.9852 25.1494 27.5673 24.5673C28.1494 23.9852 28.8405 23.5234 29.601 23.2084C30.3616 22.8933 31.1768 22.7312 32 22.7312V17Z" fill="white"/>
<rect x="32" y="17" width="304" height="6" fill="white"/>
</g>
<g filter="url(#filter4_d_250_1600)">
<rect x="20" y="27" width="6" height="509" fill="white"/>
</g>
<defs>
<filter id="filter0_d_250_1600" x="0" y="31" width="340" height="512" filterUnits="userSpaceOnUse" color-interpolation-filters="sRGB">
<feFlood flood-opacity="0" result="BackgroundImageFix"/>
<feColorMatrix in="SourceAlpha" type="matrix" values="0 0 0 0 0 0 0 0 0 0 0 0 0 0 0 0 0 0 127 0" result="hardAlpha"/>
<feOffset dy="4"/>
<feGaussianBlur stdDeviation="2"/>
<feComposite in2="hardAlpha" operator="out"/>
<feColorMatrix type="matrix" values="0 0 0 0 0 0 0 0 0 0 0 0 0 0 0 0 0 0 0.25 0"/>
<feBlend mode="normal" in2="BackgroundImageFix" result="effect1_dropShadow_250_1600"/>
<feBlend mode="normal" in="SourceGraphic" in2="effect1_dropShadow_250_1600" result="shape"/>
</filter>
<filter id="filter1_d_250_1600" x="34" y="0" width="305" height="20" filterUnits="userSpaceOnUse" color-interpolation-filters="sRGB">
<feFlood flood-opacity="0" result="BackgroundImageFix"/>
<feColorMatrix in="SourceAlpha" type="matrix" values="0 0 0 0 0 0 0 0 0 0 0 0 0 0 0 0 0 0 127 0" result="hardAlpha"/>
<feOffset dy="4"/>
<feGaussianBlur stdDeviation="2"/>
<feComposite in2="hardAlpha" operator="out"/>
<feColorMatrix type="matrix" values="0 0 0 0 0 0 0 0 0 0 0 0 0 0 0 0 0 0 0.25 0"/>
<feBlend mode="normal" in2="BackgroundImageFix" result="effect1_dropShadow_250_1600"/>
<feBlend mode="normal" in="SourceGraphic" in2="effect1_dropShadow_250_1600" result="shape"/>
</filter>
<filter id="filter2_d_250_1600" x="34" y="10" width="14" height="534" filterUnits="userSpaceOnUse" color-interpolation-filters="sRGB">
<feFlood flood-opacity="0" result="BackgroundImageFix"/>
<feColorMatrix in="SourceAlpha" type="matrix" values="0 0 0 0 0 0 0 0 0 0 0 0 0 0 0 0 0 0 127 0" result="hardAlpha"/>
<feOffset dy="4"/>
<feGaussianBlur stdDeviation="2"/>
<feComposite in2="hardAlpha" operator="out"/>
<feColorMatrix type="matrix" values="0 0 0 0 0 0 0 0 0 0 0 0 0 0 0 0 0 0 0.25 0"/>
<feBlend mode="normal" in2="BackgroundImageFix" result="effect1_dropShadow_250_1600"/>
<feBlend mode="normal" in="SourceGraphic" in2="effect1_dropShadow_250_1600" result="shape"/>
</filter>
<filter id="filter3_d_250_1600" x="16" y="17" width="324" height="20" filterUnits="userSpaceOnUse" color-interpolation-filters="sRGB">
<feFlood flood-opacity="0" result="BackgroundImageFix"/>
<feColorMatrix in="SourceAlpha" type="matrix" values="0 0 0 0 0 0 0 0 0 0 0 0 0 0 0 0 0 0 127 0" result="hardAlpha"/>
<feOffset dy="4"/>
<feGaussianBlur stdDeviation="2"/>
<feComposite in2="hardAlpha" operator="out"/>
<feColorMatrix type="matrix" values="0 0 0 0 0 0 0 0 0 0 0 0 0 0 0 0 0 0 0.25 0"/>
<feBlend mode="normal" in2="BackgroundImageFix" result="effect1_dropShadow_250_1600"/>
<feBlend mode="normal" in="SourceGraphic" in2="effect1_dropShadow_250_1600" result="shape"/>
</filter>
<filter id="filter4_d_250_1600" x="16" y="27" width="14" height="517" filterUnits="userSpaceOnUse" color-interpolation-filters="sRGB">
<feFlood flood-opacity="0" result="BackgroundImageFix"/>
<feColorMatrix in="SourceAlpha" type="matrix" values="0 0 0 0 0 0 0 0 0 0 0 0 0 0 0 0 0 0 127 0" result="hardAlpha"/>
<feOffset dy="4"/>
<feGaussianBlur stdDeviation="2"/>
<feComposite in2="hardAlpha" operator="out"/>
<feColorMatrix type="matrix" values="0 0 0 0 0 0 0 0 0 0 0 0 0 0 0 0 0 0 0.25 0"/>
<feBlend mode="normal" in2="BackgroundImageFix" result="effect1_dropShadow_250_1600"/>
<feBlend mode="normal" in="SourceGraphic" in2="effect1_dropShadow_250_1600" result="shape"/>
</filter>
</defs>
</svg>
