<svg width="452" height="800" viewBox="0 0 339 566" fill="none" xmlns="http://www.w3.org/2000/svg">
  <g transform="translate(75, 100) scale(0.6)">
    <path d="M28.3288 231.788H310.538C316.726 231.788 322.659 234.246 327.034 238.621C331.409 242.996 333.867 248.93 333.867 255.117V537.326C333.867 543.514 331.409 549.447 327.034 553.822C322.659 558.197 316.726 560.655 310.538 560.655H28.3288C22.1416 560.655 16.2078 558.197 11.8328 553.822C7.4578 549.447 5 543.514 5 537.326V255.117C5 248.93 7.4578 242.996 11.8328 238.621C16.2078 234.246 22.1416 231.788 28.3288 231.788Z" stroke="#011627" stroke-width="14"/>
    <path d="M269.583 105.172C269.583 131.74 259.029 157.219 240.243 176.005C221.457 194.791 195.978 205.345 169.41 205.345C142.843 205.345 117.363 194.791 98.5774 176.005C79.7914 157.219 69.2375 131.74 69.2375 105.172C69.2375 78.605 79.7914 53.1256 98.5774 34.3396C117.363 15.5535 142.843 5 169.41 5C195.978 5 221.457 15.5535 240.243 34.3396C259.029 53.1256 269.583 78.605 269.583 105.172Z" stroke="#011627" stroke-width="14"/>
    <path d="M168.814 237L204.253 272.439L168.814 307.878L133.375 272.439L168.814 237Z" stroke="#011627" stroke-width="14"/>
    <path d="M168.812 308L204.251 343.439L168.812 477.623L133.373 343.439L168.812 308Z" stroke="#011627" stroke-width="14"/>
  </g>
</svg>
