<svg width="291" height="255" viewBox="0 0 291 255" fill="none" xmlns="http://www.w3.org/2000/svg">
<path fill-rule="evenodd" clip-rule="evenodd" d="M0 0H291V255H0V0ZM0.454688 0.455357H35.9203V35.9732H0.454688V0.455357ZM36.8297 0.455357H72.2953V35.9732H36.8297V0.455357ZM108.67 0.455357H73.2047V35.9732H108.67V0.455357ZM109.58 0.455357H145.045V35.9732H109.58V0.455357ZM181.42 0.455357H145.955V35.9732H181.42V0.455357ZM182.33 0.455357H217.795V35.9732H182.33V0.455357ZM254.17 0.455357H218.705V35.9732H254.17V0.455357ZM255.08 0.455357H290.545V35.9732H255.08V0.455357ZM35.9203 36.8839H0.454688V72.4018H35.9203V36.8839ZM36.8297 36.8839H72.2953V72.4018H36.8297V36.8839ZM108.67 36.8839H73.2047V72.4018H108.67V36.8839ZM109.58 36.8839H145.045V72.4018H109.58V36.8839ZM181.42 36.8839H145.955V72.4018H181.42V36.8839ZM182.33 36.8839H217.795V72.4018H182.33V36.8839ZM254.17 36.8839H218.705V72.4018H254.17V36.8839ZM255.08 36.8839H290.545V72.4018H255.08V36.8839ZM35.9203 73.3125H0.454688V108.83H35.9203V73.3125ZM36.8297 73.3125H72.2953V108.83H36.8297V73.3125ZM108.67 73.3125H73.2047V108.83H108.67V73.3125ZM109.58 73.3125H145.045V108.83H109.58V73.3125ZM181.42 73.3125H145.955V108.83H181.42V73.3125ZM182.33 73.3125H217.795V108.83H182.33V73.3125ZM254.17 73.3125H218.705V108.83H254.17V73.3125ZM255.08 73.3125H290.545V108.83H255.08V73.3125ZM35.9203 109.741H0.454688V145.259H35.9203V109.741ZM36.8297 109.741H72.2953V145.259H36.8297V109.741ZM108.67 109.741H73.2047V145.259H108.67V109.741ZM109.58 109.741H145.045V145.259H109.58V109.741ZM181.42 109.741H145.955V145.259H181.42V109.741ZM182.33 109.741H217.795V145.259H182.33V109.741ZM254.17 109.741H218.705V145.259H254.17V109.741ZM255.08 109.741H290.545V145.259H255.08V109.741ZM35.9203 146.17H0.454688V181.688H35.9203V146.17ZM36.8297 146.17H72.2953V181.688H36.8297V146.17ZM108.67 146.17H73.2047V181.688H108.67V146.17ZM109.58 146.17H145.045V181.688H109.58V146.17ZM181.42 146.17H145.955V181.688H181.42V146.17ZM182.33 146.17H217.795V181.688H182.33V146.17ZM254.17 146.17H218.705V181.688H254.17V146.17ZM255.08 146.17H290.545V181.688H255.08V146.17ZM35.9203 182.598H0.454688V218.116H35.9203V182.598ZM36.8297 182.598H72.2953V218.116H36.8297V182.598ZM108.67 182.598H73.2047V218.116H108.67V182.598ZM109.58 182.598H145.045V218.116H109.58V182.598ZM181.42 182.598H145.955V218.116H181.42V182.598ZM182.33 182.598H217.795V218.116H182.33V182.598ZM254.17 182.598H218.705V218.116H254.17V182.598ZM255.08 182.598H290.545V218.116H255.08V182.598ZM35.9203 219.027H0.454688V254.545H35.9203V219.027ZM36.8297 219.027H72.2953V254.545H36.8297V219.027ZM108.67 219.027H73.2047V254.545H108.67V219.027ZM109.58 219.027H145.045V254.545H109.58V219.027ZM181.42 219.027H145.955V254.545H181.42V219.027ZM182.33 219.027H217.795V254.545H182.33V219.027ZM254.17 219.027H218.705V254.545H254.17V219.027ZM255.08 219.027H290.545V254.545H255.08V219.027Z" fill="white"/>
</svg>
