<svg width="241" height="25" viewBox="0 0 241 25" fill="none" xmlns="http://www.w3.org/2000/svg">
<path fill-rule="evenodd" clip-rule="evenodd" d="M0.620697 21.4135C-0.206899 22.234 -0.206899 23.5642 0.620697 24.3847C1.44829 25.2051 2.79009 25.2051 3.61769 24.3847L24.5966 3.58651C25.4242 2.76605 25.4242 1.43581 24.5966 0.615348C23.769 -0.205116 22.4272 -0.205116 21.5996 0.615348L0.620697 21.4135ZM24.5965 21.4135C23.769 22.234 23.769 23.5642 24.5965 24.3847C25.4241 25.2051 26.7659 25.2051 27.5935 24.3847L48.5725 3.58651C49.4001 2.76605 49.4001 1.43581 48.5725 0.615348C47.7449 -0.205116 46.4031 -0.205116 45.5755 0.615348L24.5965 21.4135ZM48.5724 24.3847C47.7448 23.5642 47.7448 22.234 48.5724 21.4135L69.5513 0.615348C70.3789 -0.205116 71.7207 -0.205116 72.5483 0.615348C73.3759 1.43581 73.3759 2.76605 72.5483 3.58651L51.5694 24.3847C50.7418 25.2051 49.4 25.2051 48.5724 24.3847ZM72.5482 21.4135C71.7207 22.234 71.7207 23.5642 72.5482 24.3847C73.3758 25.2051 74.7177 25.2051 75.5452 24.3847L96.5242 3.58651C97.3518 2.76605 97.3518 1.43581 96.5242 0.615348C95.6966 -0.205116 94.3548 -0.205116 93.5272 0.615348L72.5482 21.4135ZM96.5241 24.3847C95.6965 23.5642 95.6965 22.234 96.5241 21.4135L117.503 0.615348C118.331 -0.205116 119.672 -0.205116 120.5 0.615348C121.328 1.43581 121.328 2.76605 120.5 3.58651L99.5211 24.3847C98.6935 25.2051 97.3517 25.2051 96.5241 24.3847ZM120.5 21.4135C119.672 22.234 119.672 23.5642 120.5 24.3847C121.328 25.2051 122.669 25.2051 123.497 24.3847L144.476 3.58651C145.303 2.76605 145.303 1.43581 144.476 0.615348C143.648 -0.205116 142.306 -0.205116 141.479 0.615348L120.5 21.4135ZM144.476 24.3847C143.648 23.5642 143.648 22.234 144.476 21.4135L165.455 0.615348C166.282 -0.205116 167.624 -0.205116 168.452 0.615348C169.279 1.43581 169.279 2.76605 168.452 3.58651L147.473 24.3847C146.645 25.2051 145.303 25.2051 144.476 24.3847ZM168.452 21.4135C167.624 22.234 167.624 23.5642 168.452 24.3847C169.279 25.2051 170.621 25.2051 171.449 24.3847L192.428 3.58651C193.255 2.76605 193.255 1.43581 192.428 0.615348C191.6 -0.205116 190.258 -0.205116 189.431 0.615348L168.452 21.4135ZM192.428 24.3847C191.6 23.5642 191.6 22.234 192.428 21.4135L213.406 0.615348C214.234 -0.205116 215.576 -0.205116 216.403 0.615348C217.231 1.43581 217.231 2.76605 216.403 3.58651L195.424 24.3847C194.597 25.2051 193.255 25.2051 192.428 24.3847ZM216.403 21.4135C215.576 22.234 215.576 23.5642 216.403 24.3847C217.231 25.2051 218.573 25.2051 219.4 24.3847L240.379 3.58651C241.207 2.76605 241.207 1.43581 240.379 0.615348C239.552 -0.205116 238.21 -0.205116 237.382 0.615348L216.403 21.4135Z" fill="white" fill-opacity="0.85"/>
</svg>
