<?xml version="1.0" standalone="no"?>
<!DOCTYPE svg PUBLIC "-//W3C//DTD SVG 20010904//EN"
 "http://www.w3.org/TR/2001/REC-SVG-20010904/DTD/svg10.dtd">
<svg version="1.0" xmlns="http://www.w3.org/2000/svg"
 width="50.000000pt" height="50.000000pt" viewBox="0 0 50.000000 50.000000"
 preserveAspectRatio="xMidYMid meet">

<g transform="translate(0.000000,50.000000) scale(0.100000,-0.100000)"
fill="#000000" stroke="none">
<path d="M27 434 c-4 -4 -7 -90 -7 -191 l0 -183 230 0 230 0 -2 187 -3 188
-221 3 c-121 1 -223 -1 -227 -4z m433 -64 l0 -50 -210 0 -210 0 0 50 0 50 210
0 210 0 0 -50z m0 -180 l0 -110 -210 0 -210 0 0 110 0 110 210 0 210 0 0 -110z"/>
<path d="M190 370 l0 -30 120 0 120 0 0 30 0 30 -120 0 -120 0 0 -30z m220 0
c0 -6 -40 -10 -100 -10 -60 0 -100 4 -100 10 0 6 40 10 100 10 60 0 100 -4
100 -10z"/>
<path d="M64 379 c-10 -17 13 -36 27 -22 12 12 4 33 -11 33 -5 0 -12 -5 -16
-11z"/>
<path d="M124 379 c-10 -17 13 -36 27 -22 12 12 4 33 -11 33 -5 0 -12 -5 -16
-11z"/>
<path d="M70 235 l0 -35 110 0 110 0 0 35 0 35 -110 0 -110 0 0 -35z m200 0
c0 -12 -17 -15 -90 -15 -73 0 -90 3 -90 15 0 12 17 15 90 15 73 0 90 -3 90
-15z"/>
<path d="M320 190 l0 -80 55 0 55 0 0 80 0 80 -55 0 -55 0 0 -80z m90 0 l0
-60 -35 0 -35 0 0 60 0 60 35 0 35 0 0 -60z"/>
<path d="M70 145 l0 -35 110 0 110 0 0 35 0 35 -110 0 -110 0 0 -35z m200 0
c0 -12 -17 -15 -90 -15 -73 0 -90 3 -90 15 0 12 17 15 90 15 73 0 90 -3 90
-15z"/>
</g>
</svg>
