<svg width="30" height="30" viewBox="0 0 30 30" fill="none" xmlns="http://www.w3.org/2000/svg">
<path d="M27.8571 11.7857L18.2143 11.7857L18.2143 2.14286C18.2143 0.959598 17.2547 0 16.0714 0L13.9286 0C12.7453 0 11.7857 0.959598 11.7857 2.14286L11.7857 11.7857L2.14286 11.7857C0.959598 11.7857 0 12.7453 0 13.9286L0 16.0714C0 17.2547 0.959598 18.2143 2.14286 18.2143L11.7857 18.2143L11.7857 27.8571C11.7857 29.0404 12.7453 30 13.9286 30H16.0714C17.2547 30 18.2143 29.0404 18.2143 27.8571L18.2143 18.2143L27.8571 18.2143C29.0404 18.2143 30 17.2547 30 16.0714V13.9286C30 12.7453 29.0404 11.7857 27.8571 11.7857Z" fill="#FF6464"/>
</svg>
