<?xml version="1.0" encoding="UTF-8" standalone="no"?>
<!-- Created with Inkscape (http://www.inkscape.org/) -->

<svg
   width="1000"
   height="1000"
   viewBox="0 0 264.58332 264.58334"
   version="1.1"
   id="svg5"
   xmlns="http://www.w3.org/2000/svg"
   xmlns:svg="http://www.w3.org/2000/svg">
  <defs
     id="defs2" />
  <g
     id="layer1">
    <rect
       style="fill:#011627;fill-opacity:0;stroke:none;stroke-width:10.5833;stroke-linecap:square;stroke-miterlimit:4;stroke-dasharray:none;stroke-opacity:1;paint-order:stroke markers fill"
       id="rect5084"
       width="264.58331"
       height="264.58331"
       x="8.5058591e-06"
       y="8.5058591e-06" />
<circle
   style="fill:none;stroke:#011627;stroke-width:5;stroke-miterlimit:4;stroke-dasharray:none;stroke-opacity:1;paint-order:stroke markers fill"
   id="circle3846"
   cx="132.29166"
   cy="132.29167"
   r="24.028467" />

    <path
       id="path6203"
       style="fill:none;fill-opacity:1;stroke:#4d4d4d;stroke-width:7.93751;stroke-miterlimit:4;stroke-dasharray:none;stroke-opacity:1;paint-order:stroke markers fill"
       d="m 132.27768,70.114586 a 65.46337,62.177068 0 0 0 -11.3591,0.982625 l -4.08522,19.146728 a 46.924603,44.568959 0 0 0 -15.16835,8.320834 L 82.16041,92.350619 A 65.46337,62.177068 0 0 0 70.80053,111.03825 l 15.42327,12.93998 a 46.924603,44.568959 0 0 0 -0.8568,8.31342 46.924603,44.568959 0 0 0 0.8568,8.31343 l -15.42327,12.93998 a 65.46337,62.177068 0 0 0 11.35988,18.68763 l 19.5046,-6.21415 a 46.924603,44.568959 0 0 0 15.16835,8.32083 l 4.08522,19.14672 a 65.46337,62.177068 0 0 0 11.3591,0.98263 65.46337,62.177068 0 0 0 11.35911,-0.98263 l 4.08289,-19.13635 a 46.924603,44.568959 0 0 0 15.19017,-8.32528 l 19.48511,6.20823 a 65.46337,62.177068 0 0 0 11.35989,-18.68763 l -15.39911,-12.91998 a 46.924603,44.568959 0 0 0 0.8607,-8.33343 46.924603,44.568959 0 0 0 -0.83498,-8.35489 l 15.40145,-12.92221 A 65.46337,62.177068 0 0 0 182.43394,92.338032 l -19.49135,6.21045 A 46.924603,44.568959 0 0 0 147.71266,90.19803 l -4.08367,-19.137843 a 65.46337,62.177068 0 0 0 -11.35131,-0.945601 z" />
  </g>
</svg>
