<svg width="123" height="28" viewBox="0 0 123 28" fill="none" xmlns="http://www.w3.org/2000/svg">
<path d="M21.6017 3.04903L12.4223 12.2285C11.2933 13.3575 12.0929 15.2878 13.6895 15.2878H20.8105V12.6545C20.8105 12.0486 21.3017 11.5573 21.9077 11.5573H24.6784L24.6611 4.31196C24.6572 2.71743 22.7292 1.92153 21.6017 3.04903Z" fill="#DBE2E9"/>
<path d="M31.7719 11.5573L21.8739 11.5573C21.2669 11.5573 20.7752 12.0501 20.7767 12.6571L20.8003 22.5332C20.8041 24.1277 22.7321 24.9236 23.8596 23.7961L33.0391 14.6166C34.1681 13.4877 33.3685 11.5573 31.7719 11.5573Z" fill="white"/>
<path opacity="0.5" fill-rule="evenodd" clip-rule="evenodd" d="M24.6757 11.5573H21.8711C21.2641 11.5573 20.7725 12.0502 20.7739 12.6572L20.7802 15.2878H20.8078H23.5784C24.1844 15.2878 24.6757 14.7966 24.6757 14.1906V11.5573Z" fill="white"/>
<path d="M37.0545 4.38887L43.463 11.3311C44.5122 12.4675 44.5249 14.2154 43.4926 15.3671L40.4547 18.7562C40.0556 18.1075 39.9536 17.7363 39.9084 17.0655C39.4804 17.9648 39.4845 18.5149 39.7901 19.4975L37.1214 22.4747C34.3439 20.9348 35.1704 18.3026 35.1704 18.3026L38.5548 14.2884C39.0147 13.7428 38.9868 12.9376 38.4902 12.4253L35.183 9.01292C35.183 9.01292 34.2354 6.52462 37.0545 4.38887Z" fill="white"/>
<path d="M8.454 22.4014L2.04581 15.4588C0.996762 14.3223 0.984066 12.5744 2.01649 11.4228L5.05455 8.03392C5.45364 8.68257 5.55556 9.05385 5.60078 9.72457C6.0288 8.82536 6.02476 8.27518 5.71915 7.29258L8.38798 4.31557C11.1654 5.85557 10.3388 8.48772 10.3388 8.48772L6.9542 12.5018C6.49424 13.0473 6.5221 13.8525 7.01867 14.3649L10.3258 17.7774C10.3258 17.7774 11.2732 20.2658 8.454 22.4014Z" fill="white"/>
<path fill-rule="evenodd" clip-rule="evenodd" d="M88.7754 20.3306C88.5314 20.3306 88.3335 20.1328 88.3335 19.8887V2.80588C88.3335 2.56181 88.5314 2.36395 88.7755 2.36395H91.2634C91.5075 2.36395 91.7054 2.56181 91.7054 2.80588V7.70896C93.4949 7.06291 94.2998 7.09069 95.3945 7.20102C96.535 7.45447 97.1108 7.70138 97.8655 8.14439C98.6822 8.72168 99.1046 9.11592 99.6608 9.84809C100.132 10.5834 100.331 11.3593 100.331 12.3766L100.367 19.8866C100.368 20.1315 100.17 20.3306 99.9247 20.3306H97.6398C97.3949 20.3306 97.1966 20.1356 97.1972 19.8906C97.2014 18.2192 97.2014 12.3337 96.9969 11.8571C96.7583 11.301 96.6651 11.1466 96.3194 10.8357C95.7085 10.2863 95.1515 10.1197 94.3311 10.1197C93.7568 10.1197 93.1858 10.2826 92.6731 10.642C92.1603 11.0014 91.9255 11.4231 91.7054 11.8571C91.5168 12.2288 91.6513 18.1811 91.6937 19.8807C91.6999 20.1295 91.5 20.3306 91.2512 20.3306H88.7754ZM51.8276 19.4163C52.5659 20.0562 53.6489 20.3761 55.0764 20.3761C55.4373 20.3761 55.8721 20.3433 56.3808 20.2777C56.7611 20.2302 57.094 20.1697 57.3796 20.0964C57.5638 20.049 57.6852 19.8787 57.6852 19.6884V17.8487C57.6852 17.5443 57.3845 17.3323 57.0889 17.4051C56.9809 17.4318 56.8761 17.454 56.7746 17.4719C56.5121 17.5048 56.2167 17.5212 55.8885 17.5212C55.2322 17.5212 54.7728 17.3981 54.5103 17.152C54.2478 16.8895 54.1165 16.4628 54.1165 15.8722V10.1622H57.3417C57.5858 10.1622 57.7837 9.96434 57.7837 9.72027V7.79837C57.7837 7.5543 57.5858 7.35644 57.3417 7.35644H54.1165V3.76202C54.1165 3.51795 53.9186 3.32009 53.6746 3.32009H51.1866C50.9425 3.32009 50.7447 3.51795 50.7447 3.76202V7.35644L50.7447 10.1622V16.5613C50.7447 17.8083 51.1056 18.76 51.8276 19.4163ZM63.0827 19.5761C64.1328 20.1668 65.2977 20.4621 66.5776 20.4621C67.4341 20.4621 68.2173 20.3608 68.9274 20.158C69.1663 20.0898 69.2845 19.8282 69.1944 19.5967L68.4839 17.7695C68.3959 17.5434 68.1424 17.4328 67.9074 17.4931C67.5467 17.5855 67.1609 17.6318 66.7498 17.6318C66.1756 17.6318 65.6341 17.5169 65.1255 17.2872C64.6332 17.0575 64.2148 16.7375 63.8703 16.3273C63.5421 15.9171 63.3042 15.4577 63.1565 14.9491H72.6567V14.063C72.6567 12.7504 72.3778 11.5772 71.8199 10.5435C71.2784 9.50983 70.5319 8.68943 69.5802 8.08234C68.6286 7.47525 67.5374 7.1717 66.3068 7.1717C65.0762 7.1717 63.9605 7.46704 62.9596 8.05773C61.9587 8.64841 61.1629 9.4442 60.5723 10.4451C59.998 11.446 59.7108 12.5699 59.7108 13.8169C59.7108 15.0639 60.0144 16.1879 60.6215 17.1887C61.2286 18.1896 62.049 18.9854 63.0827 19.5761ZM69.3341 12.5371H63.1073C63.2386 12.012 63.4436 11.5608 63.7226 11.1834C64.0179 10.7896 64.3789 10.4861 64.8055 10.2728C65.2321 10.0595 65.7079 9.95285 66.233 9.95285C66.7416 9.95285 67.2011 10.0677 67.6113 10.2974C68.0379 10.5107 68.3988 10.8143 68.6942 11.2081C69.0059 11.5854 69.2192 12.0285 69.3341 12.5371ZM81.2421 20.6715C79.9787 20.6715 78.8383 20.3843 77.821 19.8101C76.8037 19.2194 75.9998 18.4236 75.4091 17.4227C74.8184 16.4054 74.523 15.2733 74.523 14.0263C74.523 12.7629 74.8184 11.6307 75.4091 10.6298C75.9998 9.62894 76.8037 8.83316 77.821 8.24247C78.8383 7.65178 79.9787 7.35644 81.2421 7.35644C82.2594 7.35644 83.2275 7.55334 84.1463 7.94713C84.953 8.2868 85.6621 8.75466 86.2735 9.3507C86.439 9.51207 86.4356 9.77527 86.277 9.94338L84.8188 11.4883C84.642 11.6757 84.3442 11.6711 84.157 11.4941C83.7824 11.14 83.3932 10.8683 82.9895 10.679C82.4809 10.4165 81.923 10.2853 81.3159 10.2853C80.6596 10.2853 80.0689 10.4493 79.5439 10.7775C79.0352 11.1057 78.625 11.5487 78.3133 12.1065C78.0179 12.6644 77.8703 13.3043 77.8703 14.0263C77.8703 14.7154 78.0179 15.3471 78.3133 15.9214C78.625 16.4793 79.0516 16.9223 79.5931 17.2504C80.1346 17.5622 80.7334 17.7181 81.3898 17.7181C81.964 17.7181 82.4973 17.6032 82.9895 17.3735C83.3774 17.1858 83.7509 16.9314 84.1101 16.6102C84.2974 16.4427 84.5861 16.4421 84.7595 16.6239L86.1726 18.106C86.3339 18.2752 86.3366 18.5419 86.1675 18.7034C85.5735 19.2707 84.8833 19.7298 84.0971 20.0808C83.1782 20.4746 82.2266 20.6715 81.2421 20.6715ZM102.943 19.8443C103.337 20.2381 103.805 20.435 104.346 20.435C104.888 20.435 105.355 20.2381 105.749 19.8443C106.143 19.4505 106.34 18.9829 106.34 18.4414C106.34 17.8836 106.143 17.4077 105.749 17.0139C105.355 16.6201 104.888 16.4233 104.346 16.4233C103.805 16.4233 103.337 16.6201 102.943 17.0139C102.549 17.4077 102.352 17.8836 102.352 18.4414C102.352 18.9829 102.549 19.4505 102.943 19.8443ZM102.352 27.4086V24.0185C102.352 23.9092 102.441 23.8206 102.55 23.8206H104.555C106.591 23.8206 108.241 22.1701 108.241 20.1341V7.79377C108.241 7.5497 108.439 7.35644 108.683 7.35644H111.171C111.415 7.35644 111.613 7.5543 111.613 7.79837V20.1341C111.613 24.1055 108.418 27.3379 104.447 27.3842L102.352 27.4086ZM113.533 19.9268C113.533 20.1499 113.714 20.3307 113.937 20.3307H116.609C116.773 20.3307 116.905 20.1982 116.905 20.0348V16.2148C116.905 13.2999 119.268 10.9369 122.183 10.9369C122.278 10.9369 122.355 10.86 122.355 10.7652V7.78571C122.355 7.63226 122.23 7.50787 122.077 7.50787C117.358 7.50787 113.533 11.3329 113.533 16.0514V19.9268Z" fill="white"/>
</svg>
